<?xml version="1.0" encoding="UTF-8" standalone="no"?>
<!-- Uploaded to: SVG Repo, www.svgrepo.com, Generator: SVG Repo Mixer Tools -->

<svg
   width="18.040009"
   height="18.039999"
   viewBox="0 0 0.54120026 0.54119997"
   fill="none"
   version="1.1"
   id="svg3"
   sodipodi:docname="burger-menu-svgrepo-com.svg"
   inkscape:export-filename="icon_estoque.svg"
   inkscape:export-xdpi="96"
   inkscape:export-ydpi="96"
   xml:space="preserve"
   xmlns:inkscape="http://www.inkscape.org/namespaces/inkscape"
   xmlns:sodipodi="http://sodipodi.sourceforge.net/DTD/sodipodi-0.dtd"
   xmlns="http://www.w3.org/2000/svg"
   xmlns:svg="http://www.w3.org/2000/svg"><defs
     id="defs3" /><sodipodi:namedview
     id="namedview3"
     pagecolor="#ffffff"
     bordercolor="#000000"
     borderopacity="0.25"
     inkscape:showpageshadow="2"
     inkscape:pageopacity="0.0"
     inkscape:pagecheckerboard="0"
     inkscape:deskcolor="#d1d1d1"
     showgrid="false"
     inkscape:export-bgcolor="#ffffff00" /><path
     d="m 0.27453847,-0.00756215 c -0.1491164,0 -0.26999999,0.12088199 -0.26999999,0.26999999 0,0.1491164 0.1208836,0.27 0.26999999,0.27 0.149118,0 0.27,-0.1208836 0.27,-0.27 0,-0.149118 -0.120882,-0.26999999 -0.27,-0.26999999 z m 0,0.486 c -0.11910209,0 -0.21599999,-0.096898 -0.21599999,-0.216 0,-0.1191021 0.09689799,-0.216 0.21599999,-0.216 0.1191038,0 0.216,0.096898 0.216,0.216 0,0.1191021 -0.096896,0.216 -0.216,0.216 z m 0.033809,-0.324 c 0,0.019576 -0.014253,0.03375 -0.033535,0.03375 -0.020062,0 -0.033965,-0.014174 -0.033965,-0.034125 0,-0.019175 0.01428,-0.033376 0.033965,-0.033376 0.019282,0 0.033535,0.014201 0.033535,0.03375 z m -0.06075,0.081 h 0.054 v 0.162 h -0.054 z"
     id="Shape"
     style="fill:#000000;fill-rule:evenodd;stroke:none;stroke-width:0.00126563" /></svg>
