<?xml version="1.0" encoding="UTF-8" standalone="no"?>
<!-- Uploaded to: SVG Repo, www.svgrepo.com, Generator: SVG Repo Mixer Tools -->

<svg
   width="18.040009"
   height="18.039999"
   viewBox="0 0 0.54120026 0.54119997"
   fill="none"
   version="1.1"
   id="svg3"
   sodipodi:docname="burger-menu-svgrepo-com.svg"
   inkscape:export-filename="icon_sobre.svg"
   inkscape:export-xdpi="96"
   inkscape:export-ydpi="96"
   xml:space="preserve"
   xmlns:inkscape="http://www.inkscape.org/namespaces/inkscape"
   xmlns:sodipodi="http://sodipodi.sourceforge.net/DTD/sodipodi-0.dtd"
   xmlns="http://www.w3.org/2000/svg"
   xmlns:svg="http://www.w3.org/2000/svg"><defs
     id="defs3" /><sodipodi:namedview
     id="namedview3"
     pagecolor="#ffffff"
     bordercolor="#000000"
     borderopacity="0.25"
     inkscape:showpageshadow="2"
     inkscape:pageopacity="0.0"
     inkscape:pagecheckerboard="0"
     inkscape:deskcolor="#d1d1d1"
     showgrid="false"
     inkscape:export-bgcolor="#ffffff00" /><g
     style="fill:#000000"
     id="g4"
     transform="matrix(0.01653095,0,0,0.01653095,0.00453847,-0.00756216)"><g
       id="g1">&#10;	<path
   d="m 28.189,16.504 h -1.666 c 0,-5.437 -4.422,-9.858 -9.856,-9.858 L 16.666,4.982 c 6.355,-0.003 11.523,5.167 11.523,11.522 z M 16.666,7.856 16.665,9.52 c 3.853,0 6.983,3.133 6.981,6.983 l 1.666,-0.001 c 0,-4.767 -3.876,-8.646 -8.646,-8.646 z M 16.333,0 C 7.326,0 0,7.326 0,16.334 c 0,9.006 7.326,16.332 16.333,16.332 0.557,0 1.007,-0.45 1.007,-1.006 0,-0.559 -0.45,-1.01 -1.007,-1.01 -7.896,0 -14.318,-6.424 -14.318,-14.316 0,-7.896 6.422,-14.319 14.318,-14.319 7.896,0 14.317,6.424 14.317,14.319 0,3.299 -1.756,6.568 -4.269,7.954 -0.913,0.502 -1.903,0.751 -2.959,0.761 0.634,-0.377 1.183,-0.887 1.591,-1.529 0.08,-0.121 0.186,-0.228 0.238,-0.359 0.328,-0.789 0.357,-1.684 0.555,-2.518 0.243,-1.064 -4.658,-3.143 -5.084,-1.814 -0.154,0.492 -0.39,2.048 -0.699,2.458 -0.275,0.366 -0.953,0.192 -1.377,-0.168 -1.117,-0.952 -2.364,-2.351 -3.458,-3.457 L 15.19,17.661 C 15.162,17.632 15.128,17.6 15.098,17.569 15.067,17.54 15.036,17.507 15.005,17.477 v 0.002 C 13.899,16.383 12.499,15.139 11.548,14.02 11.188,13.596 11.014,12.918 11.38,12.643 11.79,12.332 13.346,12.1 13.838,11.944 15.164,11.52 13.088,6.616 12.022,6.86 11.19,7.055 10.295,7.087 9.506,7.413 9.372,7.47 9.268,7.573 9.147,7.653 c -2.799,1.774 -3.16,6.082 -0.428,9.292 1.041,1.228 2.127,2.416 3.245,3.576 l -0.006,0.004 c 0.031,0.031 0.063,0.06 0.095,0.09 0.03,0.031 0.059,0.062 0.088,0.095 l 0.006,-0.006 c 1.16,1.118 2.535,2.765 4.769,4.255 4.703,3.141 8.312,2.264 10.438,1.098 3.67,-2.021 5.312,-6.338 5.312,-9.719 C 32.666,7.326 25.339,0 16.333,0 Z"
   id="path1" />&#10;</g></g></svg>
