<?xml version="1.0" encoding="UTF-8" standalone="no"?>
<!-- Uploaded to: SVG Repo, www.svgrepo.com, Generator: SVG Repo Mixer Tools -->

<svg
   width="18.040009"
   height="18.039999"
   viewBox="0 0 0.54120026 0.54119997"
   fill="none"
   version="1.1"
   id="svg3"
   sodipodi:docname="burger-menu-svgrepo-com.svg"
   inkscape:export-filename="icon_info.svg"
   inkscape:export-xdpi="96"
   inkscape:export-ydpi="96"
   xml:space="preserve"
   xmlns:inkscape="http://www.inkscape.org/namespaces/inkscape"
   xmlns:sodipodi="http://sodipodi.sourceforge.net/DTD/sodipodi-0.dtd"
   xmlns="http://www.w3.org/2000/svg"
   xmlns:svg="http://www.w3.org/2000/svg"><defs
     id="defs3" /><sodipodi:namedview
     id="namedview3"
     pagecolor="#ffffff"
     bordercolor="#000000"
     borderopacity="0.25"
     inkscape:showpageshadow="2"
     inkscape:pageopacity="0.0"
     inkscape:pagecheckerboard="0"
     inkscape:deskcolor="#d1d1d1"
     showgrid="false"
     inkscape:export-bgcolor="#ffffff00" /><g
     style="fill:none"
     id="g4"
     transform="matrix(0.02848418,0,0,0.02706,-0.08151412,-0.06228216)"><path
       fill-rule="evenodd"
       clip-rule="evenodd"
       d="M 14.2788,2.15224 C 13.9085,2 13.439,2 12.5,2 11.561,2 11.0915,2 10.7212,2.15224 10.2274,2.35523 9.83509,2.74458 9.63056,3.23463 9.53719,3.45834 9.50065,3.7185 9.48635,4.09799 9.46534,4.65568 9.17716,5.17189 8.69017,5.45093 8.20318,5.72996 7.60864,5.71954 7.11149,5.45876 6.77318,5.2813 6.52789,5.18262 6.28599,5.15102 5.75609,5.08178 5.22018,5.22429 4.79616,5.5472 4.47814,5.78938 4.24339,6.1929 3.7739,6.99993 3.30441,7.80697 3.06967,8.21048 3.01735,8.60491 2.94758,9.1308 3.09118,9.66266 3.41655,10.0835 3.56506,10.2756 3.77377,10.437 4.0977,10.639 4.57391,10.936 4.88032,11.4419 4.88029,12 c -3e-5,0.5581 -0.30643,1.0639 -0.78259,1.3608 -0.32398,0.2021 -0.53273,0.3636 -0.68125,0.5557 -0.32537,0.4208 -0.46896,0.9526 -0.3992,1.4785 0.05232,0.3944 0.28707,0.798 0.75655,1.605 0.46949,0.807 0.70424,1.2106 1.02226,1.4527 0.42402,0.3229 0.95993,0.4654 1.48983,0.3962 0.24189,-0.0316 0.48716,-0.1303 0.82544,-0.3077 0.49719,-0.2608 1.09177,-0.2712 1.57879,0.0078 0.48702,0.2791 0.77521,0.7953 0.79623,1.3531 0.0143,0.3794 0.05084,0.6396 0.14421,0.8633 0.20453,0.49 0.59684,0.8794 1.09064,1.0824 C 11.0915,22 11.561,22 12.5,22 c 0.939,0 1.4085,0 1.7788,-0.1522 0.4938,-0.203 0.8861,-0.5924 1.0906,-1.0824 0.0934,-0.2237 0.13,-0.4839 0.1443,-0.8634 0.021,-0.5577 0.3091,-1.0739 0.7961,-1.353 0.487,-0.2791 1.0816,-0.2686 1.5788,-0.0078 0.3383,0.1774 0.5835,0.276 0.8254,0.3076 0.5299,0.0693 1.0658,-0.0732 1.4898,-0.3961 0.3181,-0.2422 0.5528,-0.6457 1.0223,-1.4528 0.4695,-0.807 0.7042,-1.2105 0.7566,-1.6049 0.0697,-0.5259 -0.0739,-1.0578 -0.3992,-1.4786 -0.1486,-0.1921 -0.3573,-0.3536 -0.6813,-0.5556 -0.4761,-0.2969 -0.7825,-0.8028 -0.7825,-1.3609 0,-0.5581 0.3064,-1.0638 0.7825,-1.3607 0.3241,-0.2021 0.5328,-0.3635 0.6814,-0.5557 C 21.9089,9.66273 22.0525,9.13087 21.9828,8.60497 21.9304,8.21055 21.6957,7.80703 21.2262,7 20.7567,6.19297 20.522,5.78945 20.2039,5.54727 19.7799,5.22436 19.244,5.08185 18.7141,5.15109 18.4722,5.18269 18.2269,5.28136 17.8887,5.4588 17.3915,5.71959 16.7969,5.73002 16.3099,5.45096 15.8229,5.17191 15.5347,4.65566 15.5136,4.09794 15.4993,3.71848 15.4628,3.45833 15.3694,3.23463 15.1649,2.74458 14.7726,2.35523 14.2788,2.15224 Z M 12.5,15 c 1.6695,0 3.0228,-1.3431 3.0228,-3 0,-1.6569 -1.3533,-3 -3.0228,-3 -1.6695,0 -3.02284,1.3431 -3.02284,3 0,1.6569 1.35334,3 3.02284,3 z"
       fill="#1c274c"
       id="path1" /></g></svg>
